<svg width="776" height="774" viewBox="0 0 776 774" fill="none" xmlns="http://www.w3.org/2000/svg">
<path fill-rule="evenodd" clip-rule="evenodd" d="M454.63 30.593C460.984 12.279 478.242 0 497.627 0H776V748.089H205.689L454.63 30.593Z" fill="url(#paint0_linear_1234_2857)"/>
<rect y="374.022" width="680" height="376" rx="22.7556" fill="#FFC7DF"/>
<path fill-rule="evenodd" clip-rule="evenodd" d="M483.861 372.795C487.157 364.51 488.805 360.367 491.567 357.319C494.008 354.626 497.058 352.557 500.462 351.285C504.315 349.845 508.774 349.845 517.691 349.845H645.902C658.646 349.845 665.019 349.845 669.886 352.325C674.168 354.507 677.649 357.988 679.831 362.269C682.311 367.137 682.311 373.509 682.311 386.254V737.436C682.311 750.18 682.311 756.552 679.831 761.42C677.649 765.702 674.168 769.183 669.886 771.365C665.019 773.845 658.646 773.845 645.902 773.845H377.98C359.996 773.845 351.004 773.845 345.292 770.063C340.297 766.756 336.807 761.612 335.581 755.748C334.178 749.043 337.502 740.688 344.15 723.977L483.861 372.795Z" fill="#5468E7"/>
<defs>
<linearGradient id="paint0_linear_1234_2857" x1="698.934" y1="748.089" x2="698.934" y2="202.178" gradientUnits="userSpaceOnUse">
<stop stop-color="#323259" stop-opacity="0.01"/>
<stop offset="1" stop-color="#323259"/>
</linearGradient>
</defs>
</svg>
