<svg width="12" height="12" viewBox="0 0 12 12" fill="none" xmlns="http://www.w3.org/2000/svg">
<ellipse cx="8.56204" cy="2.76763" rx="0.676782" ry="0.682667" fill="#ADADAD"/>
<path fill-rule="evenodd" clip-rule="evenodd" d="M5.63975 8.53362C4.08456 8.53362 2.81982 7.25788 2.81982 5.68917C2.81982 4.12046 4.08456 2.84473 5.63975 2.84473C7.19494 2.84473 8.45967 4.12046 8.45967 5.68917C8.45967 7.25788 7.19494 8.53362 5.63975 8.53362ZM5.63975 4.26695C4.86215 4.26695 4.22979 4.90482 4.22979 5.68917C4.22979 6.47353 4.86215 7.11139 5.63975 7.11139C6.41734 7.11139 7.04971 6.47353 7.04971 5.68917C7.04971 4.90482 6.41734 4.26695 5.63975 4.26695Z" fill="#ADADAD"/>
<path fill-rule="evenodd" clip-rule="evenodd" d="M8.45977 11.3778H2.81992C1.37048 11.3778 0 9.99538 0 8.53333V2.84444C0 1.3824 1.37048 0 2.81992 0H8.45977C9.90921 0 11.2797 1.3824 11.2797 2.84444V8.53333C11.2797 9.99538 9.90921 11.3778 8.45977 11.3778ZM2.81992 1.42222C2.16077 1.42222 1.40996 2.17956 1.40996 2.84444V8.53333C1.40996 9.21102 2.14808 9.95556 2.81992 9.95556H8.45977C9.11893 9.95556 9.86973 9.19822 9.86973 8.53333V2.84444C9.86973 2.17956 9.11893 1.42222 8.45977 1.42222H2.81992Z" fill="#ADADAD"/>
</svg>
